<?xml version="1.0" encoding="UTF-8"?>
<svg id="_圖層_1" data-name="圖層_1" xmlns="http://www.w3.org/2000/svg" viewBox="0 0 200 200">
  <defs>
    <style>
      .cls-1 {
        fill: #0084ff;
      }
    </style>
  </defs>
  <rect width="200" height="200" rx="40.32" ry="40.32"/>
  <path class="cls-1" d="M120.22,127.16c0-4.45-1.57-7.86-4.71-10.25-3.14-2.38-8.79-4.89-16.96-7.54-8.17-2.64-14.63-5.25-19.39-7.81-12.98-7.01-19.47-16.46-19.47-28.34,0-6.18,1.74-11.68,5.22-16.53,3.48-4.84,8.48-8.62,15-11.35,6.52-2.72,13.83-4.08,21.94-4.08s15.44,1.48,21.83,4.44c6.39,2.96,11.35,7.13,14.88,12.52,3.53,5.39,5.3,11.52,5.3,18.37h-23.55c0-5.23-1.65-9.3-4.95-12.21-3.3-2.9-7.93-4.36-13.9-4.36s-10.23,1.22-13.43,3.65c-3.19,2.43-4.79,5.64-4.79,9.62,0,3.72,1.87,6.83,5.61,9.34,3.74,2.51,9.25,4.87,16.53,7.07,13.4,4.03,23.16,9.03,29.28,15s9.19,13.4,9.19,22.3c0,9.89-3.74,17.65-11.23,23.28-7.49,5.63-17.56,8.44-30.23,8.44-8.79,0-16.8-1.61-24.02-4.83-7.22-3.22-12.73-7.63-16.53-13.23-3.8-5.6-5.69-12.09-5.69-19.47h23.63c0,12.61,7.54,18.92,22.61,18.92,5.6,0,9.97-1.14,13.11-3.42,3.14-2.28,4.71-5.46,4.71-9.54Z"/>
</svg>